<?xml version="1.0" encoding="UTF-8"?>
<svg width="82px" height="100px" viewBox="0 0 82 100" version="1.1" xmlns="http://www.w3.org/2000/svg" xmlns:xlink="http://www.w3.org/1999/xlink">
    <!-- Generator: Sketch 47.1 (45422) - http://www.bohemiancoding.com/sketch -->
    <title>Logo: Black</title>
    <desc>Created with Sketch.</desc>
    <defs></defs>
    <g id="Page-1" stroke="none" stroke-width="1" fill="none" fill-rule="evenodd">
        <g id="Logo:-Black">
            <g id="Shape" transform="translate(1.000000, 0.000000)" stroke-width="2">
                <path d="M45.3129908,3.01196336 L75.2405877,21.7806117 L75.2405877,21.7806117 C78.1569739,23.6095801 79.9275969,26.8100091 79.9275969,30.252455 L79.9275969,69.267545 L79.9275969,69.267545 C79.9275969,72.7099909 78.1569739,75.9104199 75.2405877,77.7393883 L45.3129908,96.5080366 L45.3129908,96.5080366 C42.0640225,98.5455789 37.9359775,98.5455789 34.6870092,96.5080366 L4.75941225,77.7393883 L4.75941225,77.7393883 C1.84302606,75.9104199 0.0724030705,72.7099909 0.0724030705,69.267545 L0.0724030705,30.252455 L0.0724030705,30.252455 C0.0724030705,26.8100091 1.84302606,23.6095801 4.75941225,21.7806117 L34.6870092,3.01196336 L34.6870092,3.01196336 C37.9359775,0.974421069 42.0640225,0.974421069 45.3129908,3.01196336 Z" id="Polygon" stroke="#000000" fill="#000000"></path>
                <path d="M40.2948939,96.8204651 L77.6167527,73.0995349" id="Line" stroke="#FFFFFF" stroke-linecap="square"></path>
                <path d="M2.38324727,26.7404651 L39.7051061,3.01953488" id="Line" stroke="#FFFFFF" stroke-linecap="square"></path>
            </g>
            <g id="Letters" transform="translate(12.000000, 21.000000)" font-size="42.5" font-family="OpenSans-Semibold, Open Sans" fill="#FFFFFF" font-weight="500">
                <text id="N">
                    <tspan x="0.700683594" y="45">N</tspan>
                </text>
                <text id="B">
                    <tspan x="30.3466797" y="45">B</tspan>
                </text>
            </g>
        </g>
    </g>
</svg>